<svg width="322" height="321" viewBox="0 0 322 321" fill="none" xmlns="http://www.w3.org/2000/svg">
<circle cx="161" cy="160.5" r="160.5" fill="#2563EB"/>
<path d="M132.032 112.615C131.535 113.111 131.158 113.71 130.844 114.366L130.808 114.33L81.094 226.32L81.1427 226.369C80.2208 228.155 81.7633 231.79 84.9236 234.955C88.0839 238.115 91.7185 239.657 93.5048 238.735L93.5491 238.78L205.539 189.061L205.504 189.021C206.155 188.711 206.754 188.334 207.255 187.829C214.178 180.905 202.951 158.455 182.185 137.685C161.41 116.914 138.959 105.691 132.032 112.615Z" fill="#DD2E44"/>
<path d="M138.122 132.614L82.3439 223.506L81.094 226.32L81.1427 226.369C80.2208 228.155 81.7633 231.79 84.9236 234.955C85.9519 235.983 87.0201 236.763 88.0662 237.423L155.851 154.776L138.122 132.614Z" fill="#EA596E"/>
<path d="M182.499 137.339C203.199 158.047 214.692 180.121 208.159 186.645C201.63 193.179 179.556 181.69 158.843 160.99C138.139 140.282 126.651 118.2 133.18 111.671C139.713 105.142 161.787 116.631 182.499 137.339Z" fill="#A0041E"/>
<path d="M162.899 139.746C162.017 140.459 160.865 140.832 159.646 140.699C155.798 140.282 152.563 138.944 150.298 136.829C147.9 134.591 146.716 131.586 147.04 128.576C147.607 123.293 152.908 118.444 161.946 119.419C165.461 119.795 167.03 118.665 167.083 118.124C167.145 117.588 165.856 116.148 162.341 115.766C158.493 115.35 155.258 114.011 152.988 111.897C150.59 109.658 149.402 106.653 149.73 103.644C150.307 98.3601 155.603 93.511 164.632 94.4906C167.194 94.7654 168.546 94.238 169.118 93.8967C169.574 93.6174 169.756 93.3515 169.774 93.1963C169.827 92.66 168.555 91.2195 165.031 90.8383C162.598 90.5723 160.834 88.3916 161.104 85.9537C161.365 83.5203 163.542 81.7606 165.984 82.0266C175.013 82.9973 179.162 88.8614 178.59 94.1493C178.014 99.4416 172.717 104.282 163.679 103.311C161.117 103.032 159.779 103.564 159.202 103.905C158.746 104.18 158.56 104.45 158.542 104.601C158.484 105.142 159.765 106.578 163.289 106.959C172.318 107.934 176.467 113.794 175.895 119.082C175.323 124.365 170.026 129.214 160.993 128.235C158.431 127.96 157.084 128.492 156.508 128.829C156.047 129.112 155.869 129.378 155.852 129.529C155.794 130.065 157.075 131.506 160.594 131.887C163.023 132.153 164.792 134.338 164.521 136.772C164.397 137.986 163.781 139.037 162.899 139.746Z" fill="#AA8DD8"/>
<path d="M216.403 180.737C225.148 178.268 231.181 182.169 232.617 187.288C234.053 192.403 230.941 198.879 222.201 201.339C218.788 202.296 217.764 203.928 217.901 204.446C218.052 204.969 219.785 205.829 223.189 204.867C231.93 202.407 237.962 206.308 239.399 211.423C240.844 216.542 237.723 223.009 228.978 225.474C225.569 226.431 224.541 228.067 224.692 228.585C224.838 229.104 226.567 229.964 229.975 229.006C232.324 228.346 234.78 229.715 235.44 232.069C236.096 234.427 234.727 236.874 232.369 237.539C223.632 239.999 217.595 236.107 216.15 230.983C214.714 225.868 217.83 219.401 226.58 216.937C229.993 215.975 231.017 214.348 230.866 213.825C230.724 213.307 228.996 212.442 225.592 213.4C216.842 215.864 210.814 211.972 209.373 206.844C207.933 201.729 211.049 195.262 219.794 192.793C223.198 191.84 224.222 190.2 224.08 189.686C223.929 189.163 222.205 188.303 218.797 189.261C216.439 189.925 213.996 188.551 213.331 186.198C212.671 183.849 214.045 181.402 216.403 180.737Z" fill="#77B255"/>
<path d="M182.451 168.783C181.147 168.783 179.862 168.211 178.984 167.121C177.455 165.206 177.77 162.418 179.676 160.889C180.642 160.113 203.691 142.011 236.265 146.669C238.689 147.015 240.374 149.258 240.028 151.682C239.682 154.102 237.457 155.805 235.01 155.441C206.231 151.354 185.425 167.648 185.221 167.812C184.396 168.468 183.421 168.783 182.451 168.783Z" fill="#AA8DD8"/>
<path d="M106.004 150.344C105.583 150.344 105.153 150.282 104.728 150.158C102.383 149.453 101.053 146.984 101.758 144.639C106.78 127.916 111.332 101.228 105.738 94.2689C105.113 93.48 104.169 92.7043 102.006 92.8683C97.8486 93.1874 98.2431 101.959 98.2475 102.048C98.4337 104.49 96.5986 106.618 94.1608 106.799C91.6831 106.95 89.5909 105.151 89.4092 102.708C88.9527 96.596 90.8542 84.8234 101.341 84.03C106.022 83.6754 109.909 85.3021 112.653 88.7151C123.162 101.795 112.493 139.715 110.251 147.188C109.674 149.107 107.91 150.344 106.004 150.344Z" fill="#77B255"/>
<path d="M193.527 128.182C197.199 128.182 200.176 125.205 200.176 121.533C200.176 117.861 197.199 114.884 193.527 114.884C189.855 114.884 186.879 117.861 186.879 121.533C186.879 125.205 189.855 128.182 193.527 128.182Z" fill="#5C913B"/>
<path d="M89.3649 168.074C94.2608 168.074 98.2298 164.105 98.2298 159.209C98.2298 154.313 94.2608 150.344 89.3649 150.344C84.4689 150.344 80.5 154.313 80.5 159.209C80.5 164.105 84.4689 168.074 89.3649 168.074Z" fill="#9266CC"/>
<path d="M224.554 172.506C228.226 172.506 231.203 169.529 231.203 165.857C231.203 162.185 228.226 159.209 224.554 159.209C220.882 159.209 217.906 162.185 217.906 165.857C217.906 169.529 220.882 172.506 224.554 172.506Z" fill="#5C913B"/>
<path d="M184.662 225.695C188.334 225.695 191.311 222.719 191.311 219.047C191.311 215.375 188.334 212.398 184.662 212.398C180.99 212.398 178.014 215.375 178.014 219.047C178.014 222.719 180.99 225.695 184.662 225.695Z" fill="#5C913B"/>
<path d="M204.608 106.019C209.504 106.019 213.473 102.05 213.473 97.1545C213.473 92.2585 209.504 88.2896 204.608 88.2896C199.712 88.2896 195.743 92.2585 195.743 97.1545C195.743 102.05 199.712 106.019 204.608 106.019Z" fill="#FFCC4D"/>
<path d="M224.554 123.749C228.226 123.749 231.203 120.772 231.203 117.1C231.203 113.428 228.226 110.452 224.554 110.452C220.882 110.452 217.906 113.428 217.906 117.1C217.906 120.772 220.882 123.749 224.554 123.749Z" fill="#FFCC4D"/>
<path d="M211.257 141.479C214.929 141.479 217.906 138.502 217.906 134.83C217.906 131.158 214.929 128.182 211.257 128.182C207.585 128.182 204.608 131.158 204.608 134.83C204.608 138.502 207.585 141.479 211.257 141.479Z" fill="#FFCC4D"/>
<path d="M113.743 190.236C117.415 190.236 120.392 187.259 120.392 183.587C120.392 179.915 117.415 176.938 113.743 176.938C110.071 176.938 107.095 179.915 107.095 183.587C107.095 187.259 110.071 190.236 113.743 190.236Z" fill="#FFCC4D"/>
</svg>
